<svg width="39" height="36" viewBox="0 0 39 36" fill="none" xmlns="http://www.w3.org/2000/svg">
<path d="M19.5 36C30.2696 36 39 27.9411 39 18C39 8.05887 30.2696 0 19.5 0C8.73045 0 0 8.05887 0 18C0 27.9411 8.73045 36 19.5 36Z" fill="url(#paint0_linear)"/>
<path d="M24.9808 12.3084C24.9808 9.51884 22.5221 7.20703 19.5 7.20703C16.478 7.20703 14.0192 9.51877 14.0192 12.3084C14.0192 15.0981 16.478 17.3676 19.5 17.3676C22.5221 17.3676 24.9808 15.098 24.9808 12.3084Z" fill="url(#paint1_linear)"/>
<path d="M9.22351 28.1605C9.22351 28.5101 9.52995 28.7929 9.9086 28.7929H29.0914C29.4701 28.7929 29.7765 28.5101 29.7765 28.1605C29.7765 22.9296 25.1668 18.6324 19.5 18.6324C13.8332 18.6324 9.22351 22.9296 9.22351 28.1605Z" fill="url(#paint2_linear)"/>
<defs>
<linearGradient id="paint0_linear" x1="19.5" y1="36" x2="19.5" y2="0" gradientUnits="userSpaceOnUse">
<stop stop-color="#FFEDAD"/>
<stop offset="1" stop-color="#FFFFE5"/>
</linearGradient>
<linearGradient id="paint1_linear" x1="19.5" y1="28.7888" x2="19.5" y2="6.90659" gradientUnits="userSpaceOnUse">
<stop stop-color="#3342C4"/>
<stop offset="1" stop-color="#F02215"/>
</linearGradient>
<linearGradient id="paint2_linear" x1="19.5" y1="28.7929" x2="19.5" y2="6.9107" gradientUnits="userSpaceOnUse">
<stop offset="0.0729167" stop-color="#2420E2"/>
<stop offset="0.463542" stop-color="#D20F0F"/>
</linearGradient>
</defs>
</svg>
