<svg width="167" height="54" viewBox="0 0 167 54" fill="none" xmlns="http://www.w3.org/2000/svg">
<path d="M31.944 18.496C31.944 17.152 32.336 16.096 33.12 15.328C33.92 14.544 35.04 14.152 36.48 14.152C36.848 14.152 37.264 14.224 37.728 14.368C38.192 14.512 38.552 14.688 38.808 14.896L37.92 17.152C37.68 17.056 37.448 16.984 37.224 16.936C37.016 16.872 36.816 16.84 36.624 16.84C36.08 16.84 35.68 17.04 35.424 17.44C35.184 17.824 35.064 18.32 35.064 18.928V19.6H37.272L38.256 22.024H35.064V31H31.944V22.024H30.144V19.6H31.944V18.496ZM43.6817 14.056V31H40.5857V14.32L43.6817 14.056ZM48.3527 14.2C48.8487 14.2 49.2647 14.368 49.6007 14.704C49.9527 15.04 50.1287 15.456 50.1287 15.952C50.1287 16.448 49.9527 16.864 49.6007 17.2C49.2647 17.536 48.8487 17.704 48.3527 17.704C47.8727 17.704 47.4647 17.536 47.1287 17.2C46.7927 16.864 46.6247 16.448 46.6247 15.952C46.6247 15.456 46.7927 15.04 47.1287 14.704C47.4647 14.368 47.8727 14.2 48.3527 14.2ZM49.9127 19.36V31H46.7927V19.36H49.9127ZM58.5733 21.568C57.4853 21.568 56.7253 21.952 56.2933 22.72C55.8773 23.488 55.6693 24.28 55.6693 25.096C55.6693 26.008 55.8613 26.824 56.2453 27.544C56.6293 28.264 57.4053 28.624 58.5733 28.624C58.9413 28.624 59.3253 28.544 59.7253 28.384C60.1413 28.208 60.5253 28.008 60.8773 27.784V22.408C60.5253 22.168 60.1413 21.968 59.7253 21.808C59.3253 21.648 58.9413 21.568 58.5733 21.568ZM64.0213 19.36V30.976C64.0213 32.384 63.5413 33.56 62.5813 34.504C61.6373 35.464 60.1333 35.944 58.0693 35.944C57.5733 35.944 56.8533 35.824 55.9093 35.584C54.9653 35.36 54.1813 35.04 53.5573 34.624L54.4933 32.416C55.2133 32.768 55.8293 33.024 56.3413 33.184C56.8533 33.344 57.4053 33.424 57.9973 33.424C58.9253 33.424 59.6373 33.2 60.1333 32.752C60.6293 32.32 60.8773 31.72 60.8773 30.952V30.352C60.3813 30.64 59.8533 30.864 59.2933 31.024C58.7333 31.2 58.2133 31.288 57.7333 31.288C56.0373 31.288 54.7333 30.696 53.8213 29.512C52.9093 28.328 52.4533 26.856 52.4533 25.096C52.4533 23.336 52.9333 21.864 53.8933 20.68C54.8693 19.496 56.1973 18.904 57.8773 18.904C58.4533 18.904 59.1013 19.032 59.8213 19.288C60.5413 19.528 61.1573 19.872 61.6693 20.32L62.3893 19.36H64.0213ZM70.4005 20.128C70.9125 19.728 71.4965 19.424 72.1525 19.216C72.8245 19.008 73.4245 18.904 73.9525 18.904C75.5365 18.904 76.6565 19.368 77.3125 20.296C77.9845 21.224 78.3205 22.36 78.3205 23.704V31H75.2005V23.848C75.2005 23.112 75.0245 22.552 74.6725 22.168C74.3205 21.768 73.8005 21.568 73.1125 21.568C72.6645 21.568 72.2005 21.688 71.7205 21.928C71.2405 22.152 70.8005 22.416 70.4005 22.72V31H67.3045V14.32L70.4005 14.056V20.128ZM88.3755 30.76C88.1195 30.968 87.7515 31.136 87.2715 31.264C86.8075 31.408 86.3915 31.48 86.0235 31.48C84.5835 31.48 83.4475 31.12 82.6155 30.4C81.7995 29.664 81.3915 28.624 81.3915 27.28V21.784H79.8315V19.384H81.3915V16.624L84.4875 16.072V19.384H86.5995L87.5595 21.784H84.4875V26.728C84.4875 27.336 84.6315 27.84 84.9195 28.24C85.2075 28.624 85.6315 28.816 86.1915 28.816C86.3995 28.816 86.6075 28.792 86.8155 28.744C87.0235 28.696 87.2395 28.616 87.4635 28.504L88.3755 30.76Z" fill="#060601"/>
<path d="M95.7452 21.568C94.6572 21.568 93.8972 21.952 93.4652 22.72C93.0492 23.488 92.8412 24.28 92.8412 25.096C92.8412 26.008 93.0332 26.824 93.4172 27.544C93.8012 28.264 94.5772 28.624 95.7452 28.624C96.1132 28.624 96.4972 28.544 96.8972 28.384C97.3132 28.208 97.6972 28.008 98.0492 27.784V22.408C97.6972 22.168 97.3132 21.968 96.8972 21.808C96.4972 21.648 96.1132 21.568 95.7452 21.568ZM101.193 14.056V31H99.5612L98.6972 29.872C98.1692 30.32 97.5452 30.672 96.8252 30.928C96.1212 31.168 95.4812 31.288 94.9052 31.288C93.2092 31.288 91.9052 30.696 90.9932 29.512C90.0812 28.328 89.6252 26.856 89.6252 25.096C89.6252 23.336 90.1052 21.864 91.0652 20.68C92.0412 19.496 93.3692 18.904 95.0492 18.904C95.4812 18.904 95.9692 18.984 96.5132 19.144C97.0572 19.288 97.5692 19.496 98.0492 19.768V14.32L101.193 14.056ZM110.332 31.288C108.316 31.288 106.724 30.736 105.556 29.632C104.404 28.528 103.828 27.048 103.828 25.192C103.828 23.336 104.348 21.848 105.388 20.728C106.444 19.608 107.876 19.048 109.684 19.048C111.508 19.048 112.844 19.656 113.692 20.872C114.556 22.072 114.988 23.496 114.988 25.144V26.104H107.14C107.284 26.872 107.636 27.488 108.196 27.952C108.756 28.4 109.492 28.624 110.404 28.624C110.932 28.624 111.404 28.56 111.82 28.432C112.252 28.288 112.748 28.088 113.308 27.832L114.22 30.088C113.676 30.504 113.012 30.808 112.228 31C111.46 31.192 110.828 31.288 110.332 31.288ZM112.036 24.016C111.876 23.232 111.588 22.656 111.172 22.288C110.756 21.904 110.236 21.712 109.612 21.712C108.972 21.712 108.436 21.912 108.004 22.312C107.572 22.696 107.292 23.264 107.164 24.016H112.036ZM120.65 14.056V31H117.554V14.32L120.65 14.056ZM125.321 14.2C125.817 14.2 126.233 14.368 126.569 14.704C126.921 15.04 127.097 15.456 127.097 15.952C127.097 16.448 126.921 16.864 126.569 17.2C126.233 17.536 125.817 17.704 125.321 17.704C124.841 17.704 124.433 17.536 124.097 17.2C123.761 16.864 123.593 16.448 123.593 15.952C123.593 15.456 123.761 15.04 124.097 14.704C124.433 14.368 124.841 14.2 125.321 14.2ZM126.881 19.36V31H123.761V19.36H126.881ZM135.542 21.568C134.454 21.568 133.694 21.952 133.262 22.72C132.846 23.488 132.638 24.28 132.638 25.096C132.638 26.008 132.83 26.824 133.214 27.544C133.598 28.264 134.374 28.624 135.542 28.624C135.91 28.624 136.294 28.544 136.694 28.384C137.11 28.208 137.494 28.008 137.846 27.784V22.408C137.494 22.168 137.11 21.968 136.694 21.808C136.294 21.648 135.91 21.568 135.542 21.568ZM140.99 19.36V30.976C140.99 32.384 140.51 33.56 139.55 34.504C138.606 35.464 137.102 35.944 135.038 35.944C134.542 35.944 133.822 35.824 132.878 35.584C131.934 35.36 131.15 35.04 130.526 34.624L131.462 32.416C132.182 32.768 132.798 33.024 133.31 33.184C133.822 33.344 134.374 33.424 134.966 33.424C135.894 33.424 136.606 33.2 137.102 32.752C137.598 32.32 137.846 31.72 137.846 30.952V30.352C137.35 30.64 136.822 30.864 136.262 31.024C135.702 31.2 135.182 31.288 134.702 31.288C133.006 31.288 131.702 30.696 130.79 29.512C129.878 28.328 129.422 26.856 129.422 25.096C129.422 23.336 129.902 21.864 130.862 20.68C131.838 19.496 133.166 18.904 134.846 18.904C135.422 18.904 136.07 19.032 136.79 19.288C137.51 19.528 138.126 19.872 138.638 20.32L139.358 19.36H140.99ZM147.369 20.128C147.881 19.728 148.465 19.424 149.121 19.216C149.793 19.008 150.393 18.904 150.921 18.904C152.505 18.904 153.625 19.368 154.281 20.296C154.953 21.224 155.289 22.36 155.289 23.704V31H152.169V23.848C152.169 23.112 151.993 22.552 151.641 22.168C151.289 21.768 150.769 21.568 150.081 21.568C149.633 21.568 149.169 21.688 148.689 21.928C148.209 22.152 147.769 22.416 147.369 22.72V31H144.273V14.32L147.369 14.056V20.128ZM165.344 30.76C165.088 30.968 164.72 31.136 164.24 31.264C163.776 31.408 163.36 31.48 162.992 31.48C161.552 31.48 160.416 31.12 159.584 30.4C158.768 29.664 158.36 28.624 158.36 27.28V21.784H156.8V19.384H158.36V16.624L161.456 16.072V19.384H163.568L164.528 21.784H161.456V26.728C161.456 27.336 161.6 27.84 161.888 28.24C162.176 28.624 162.6 28.816 163.16 28.816C163.368 28.816 163.576 28.792 163.784 28.744C163.992 28.696 164.208 28.616 164.432 28.504L165.344 30.76Z" fill="#F81E1E"/>
<path d="M7.23585 19.1892L10.8958 22.0894L10.2746 29.7878C10.2664 29.8903 10.2871 29.9973 10.3346 30.098C10.3821 30.1986 10.4547 30.2894 10.545 30.361L12.6426 32.023C12.983 32.2928 13.449 32.2092 13.577 31.8556L15.7266 25.9172L19.0205 28.5273L19.1554 31.1991C19.1648 31.386 19.2655 31.5713 19.4266 31.699L20.7072 32.7137C21.0406 32.9779 21.4973 32.9042 21.6352 32.5638L22.9696 28.8067L26.3221 26.6488C26.6221 26.4367 26.5894 25.9753 26.256 25.7111L24.9754 24.6964C24.814 24.5685 24.6109 24.513 24.4268 24.5467L21.7949 25.026L18.501 22.4159L23.7905 18.9662C24.1055 18.7607 24.0806 18.2876 23.7401 18.0179L21.6426 16.3558C21.4588 16.2101 21.2223 16.1599 21.0231 16.2238L13.6702 18.5881L10.0102 15.688C8.87822 14.7909 6.315 14.0356 5.54879 15.0026C4.78258 15.9695 6.10382 18.2922 7.23585 19.1892Z" fill="#164195"/>
</svg>
