<svg width="585" height="404" viewBox="0 0 585 404" fill="none" xmlns="http://www.w3.org/2000/svg">
<g clip-path="url(#clip0)">
<path d="M78.6081 291.422L71.0851 279.279C73.5157 272.972 76.3006 266.806 79.4263 260.812L84.3654 264.964L80.5137 258.747C84.4524 251.373 87.5281 246.74 87.5281 246.74C87.5281 246.74 102.606 271.565 107.286 297.623L97.0121 312.804L108.222 304.126C108.553 307.158 108.694 310.207 108.643 313.255C108.024 343.992 97.4722 368.708 85.0755 368.458C72.6789 368.209 63.1315 343.09 63.7509 312.353C63.9429 302.824 66.3018 292.898 69.4645 283.736L78.6081 291.422Z" fill="#E6E6E6"/>
<path d="M44.5669 304.978L31.8435 298.467C30.6603 291.813 29.8539 285.097 29.428 278.352L35.8045 279.355L29.2901 276.022C28.8463 267.676 29.0814 262.121 29.0814 262.121C29.0814 262.121 54.835 275.588 72.3246 295.478L71.3858 313.779L76.4913 300.562C78.3439 302.986 80.0422 305.523 81.5759 308.159C96.9509 334.791 100.707 361.397 89.9664 367.585C79.2253 373.772 58.0541 357.199 42.6791 330.567C37.9128 322.31 34.7959 312.595 32.7624 303.119L44.5669 304.978Z" fill="#E6E6E6"/>
<path d="M108.453 403.273C93.792 404.209 77.8177 403.218 60.8237 403.273V364.406C75.7982 366.735 91.7672 366.496 108.453 364.406V403.273Z" fill="#E6E6E6"/>
<path d="M454.029 225.501L298.442 250.526L297.782 99.4317L453.37 0L454.029 225.501Z" fill="#E6E6E6"/>
<path d="M439.525 203.11L305.034 232.086V105.643L439.525 32.726V203.11Z" fill="white"/>
<path d="M426.34 87.204L312.945 137.929V120.131L426.34 64.1734V87.204Z" fill="#3F3D56"/>
<path d="M426.34 134.62L312.945 174.572V157.011L426.34 111.896V134.62Z" fill="#6C63FF"/>
<path d="M356.755 112.617C356.778 112.528 356.828 112.447 356.9 112.389C356.972 112.331 357.061 112.298 357.154 112.295C357.247 112.292 357.338 112.319 357.413 112.372C357.489 112.426 357.545 112.502 357.573 112.591L359.409 118.371L361.609 125.295C361.641 125.396 361.634 125.506 361.589 125.602C361.544 125.699 361.465 125.775 361.367 125.815L357.116 127.585L353.381 129.14C353.308 129.17 353.229 129.179 353.151 129.167C353.073 129.155 353 129.121 352.941 129.07C352.881 129.019 352.837 128.952 352.813 128.877C352.789 128.803 352.786 128.723 352.805 128.646L354.848 120.356L356.755 112.617Z" fill="#E6E6E6"/>
<path d="M349.936 155.716C349.972 155.567 350.056 155.435 350.175 155.339C350.294 155.243 350.441 155.188 350.594 155.183C350.746 155.178 350.897 155.223 351.021 155.311C351.146 155.399 351.239 155.526 351.285 155.671L352.824 160.516L354.947 167.2C355 167.367 354.989 167.548 354.915 167.707C354.841 167.866 354.71 167.991 354.548 168.058L350.532 169.73L347.301 171.075C347.182 171.125 347.05 171.141 346.922 171.12C346.794 171.1 346.674 171.045 346.575 170.96C346.477 170.876 346.404 170.766 346.364 170.642C346.324 170.519 346.32 170.387 346.351 170.261L348.263 162.502L349.936 155.716Z" fill="#E6E6E6"/>
<path d="M426.34 182.036L312.945 211.215V192.573L426.34 157.914V182.036Z" fill="#F2F2F2"/>
<path d="M423.703 100.015C423.703 103.982 421.924 107.925 419.747 108.816C417.589 109.7 415.854 107.246 415.854 103.342C415.854 99.4389 417.589 95.5138 419.747 94.5679C421.924 93.6136 423.703 96.0491 423.703 100.015Z" fill="#3F3D56"/>
<path d="M421.065 101.133C421.065 102.455 420.474 103.775 419.747 104.08C419.022 104.383 418.435 103.563 418.435 102.248C418.435 100.933 419.022 99.6156 419.747 99.3047C420.474 98.9928 421.065 99.8111 421.065 101.133Z" fill="white"/>
<path d="M423.703 146.114C423.703 150.081 421.924 154.024 419.747 154.915C417.589 155.799 415.854 153.345 415.854 149.441C415.854 145.538 417.589 141.613 419.747 140.667C421.924 139.713 423.703 142.148 423.703 146.114Z" fill="#6C63FF"/>
<path d="M421.065 147.232C421.065 148.554 420.474 149.874 419.747 150.179C419.022 150.482 418.435 149.662 418.435 148.347C418.435 147.032 419.022 145.715 419.747 145.404C420.474 145.092 421.065 145.91 421.065 147.232Z" fill="white"/>
<path d="M423.703 192.213C423.703 196.18 421.924 200.123 419.747 201.014C417.589 201.898 415.854 199.444 415.854 195.54C415.854 191.637 417.589 187.712 419.747 186.766C421.924 185.812 423.703 188.247 423.703 192.213Z" fill="#F2F2F2"/>
<path d="M421.065 193.331C421.065 194.653 420.474 195.973 419.747 196.278C419.022 196.581 418.435 195.761 418.435 194.446C418.435 193.131 419.022 191.814 419.747 191.503C420.474 191.191 421.065 192.009 421.065 193.331Z" fill="white"/>
<path d="M360.476 193.914C360.513 193.766 360.597 193.633 360.716 193.537C360.834 193.441 360.981 193.386 361.134 193.381C361.287 193.376 361.437 193.421 361.562 193.509C361.687 193.598 361.779 193.724 361.826 193.87L363.365 198.715L365.488 205.398C365.541 205.565 365.529 205.746 365.455 205.905C365.382 206.064 365.251 206.189 365.089 206.257L361.072 207.929L357.842 209.273C357.722 209.323 357.591 209.339 357.463 209.318C357.334 209.298 357.214 209.243 357.116 209.158C357.017 209.074 356.944 208.964 356.904 208.841C356.865 208.717 356.86 208.585 356.891 208.459L358.804 200.7L360.476 193.914Z" fill="#E6E6E6"/>
<path d="M333.712 185.811L339.846 180.159C339.846 180.159 353.732 170.605 348.882 165.353C344.032 160.1 334.256 172.348 334.256 172.348L328.19 176.318L333.712 185.811Z" fill="#A0616A"/>
<path d="M252.611 188.441L249.038 193.354C249.038 193.354 244.044 212.537 269.314 213.555C269.314 213.555 301.587 229.184 309.576 219.392C317.565 209.601 339.608 186.049 339.608 186.049L326.641 172.884L300.216 200.474L274.579 187.641C274.579 187.641 261.374 180.366 252.611 188.441Z" fill="#2F2E41"/>
<path d="M235.794 279.47L202.336 402.607L206.55 403.449L241.695 279.47H235.794Z" fill="#E6E6E6"/>
<path d="M276.356 279.47L309.814 402.607L305.599 403.449L270.454 279.47H276.356Z" fill="#E6E6E6"/>
<path d="M253.497 276.944L259.108 402.813L263.98 403.03L257.712 275.259L253.497 276.944Z" fill="#E6E6E6"/>
<path d="M269.093 274.952C269.093 278.145 260.344 281.572 248.86 282.673C236.536 283.855 225.861 281.937 225.861 278.308C225.861 274.678 236.536 271.103 248.86 270.372C260.344 269.691 269.093 271.76 269.093 274.952Z" fill="#E6E6E6"/>
<path d="M281.316 253.365L289.747 259.259C289.747 259.259 325.996 285.365 322.624 295.47C319.252 305.575 300.706 345.996 300.706 345.996L277.101 338.417L304.078 295.47L289.747 281.996L282.159 263.47L281.316 253.365Z" fill="#2F2E41"/>
<path d="M248.439 238.207C248.439 238.207 231.579 264.312 241.695 271.891C251.811 279.47 280.473 308.944 280.473 308.944L286.374 322.417L307.45 390.628L333.583 377.154L309.979 324.101C309.979 324.101 307.45 304.733 299.02 293.786C290.59 282.838 287.218 266.838 287.218 266.838L289.747 259.259L274.652 235.133L248.439 238.207Z" fill="#2F2E41"/>
<path d="M294.284 341.171L279.132 336.564C279.132 336.564 262.77 335.891 263.613 341.786C264.456 347.68 277.944 386.417 282.159 383.891C286.374 381.365 283.002 369.575 283.002 369.575L294.284 341.171Z" fill="#2F2E41"/>
<path d="M260.662 156.102L252.233 165.365L265.72 187.26L271.622 170.417L260.662 156.102Z" fill="#A0616A"/>
<path d="M268.671 188.523L253.698 163.754L248.439 164.944V173.365L246.753 244.102L274.572 239.891C274.572 239.891 276.258 194.417 268.671 188.523Z" fill="#6C63FF"/>
<path d="M261.084 187.681L248.439 164.944L237.48 169.996L218.09 249.154L206.288 271.891C206.288 271.891 245.067 291.259 254.34 271.891C263.613 252.523 264.456 209.575 264.456 209.575L261.084 187.681Z" fill="#2F2E41"/>
<path d="M242.538 173.365L237.48 169.996C237.48 169.996 218.09 165.786 218.09 191.049C218.09 191.049 203.759 223.891 213.875 231.47C223.992 239.049 248.439 260.102 248.439 260.102L261.084 246.628L232.422 221.365L244.224 195.259C244.224 195.259 250.968 181.786 242.538 173.365Z" fill="#2F2E41"/>
<path d="M248.439 254.207L254.34 260.101C254.34 260.101 264.456 273.575 269.514 268.523C274.572 263.47 261.927 254.207 261.927 254.207L257.712 248.312L248.439 254.207Z" fill="#A0616A"/>
<path d="M267.694 180.88L282.159 216.312C282.159 216.312 288.061 233.996 288.061 240.733V259.259L272.043 238.207C272.043 238.207 263.344 183.344 267.694 180.88Z" fill="#2F2E41"/>
<path d="M313.751 383.912C313.751 383.912 309.575 400.337 315.056 401.728C320.537 403.118 366.526 404.295 366.555 396.531C366.584 388.767 336.708 382.353 336.708 382.353L325.67 375.279L313.751 383.912Z" fill="#2F2E41"/>
<path d="M271.2 171.681C279.581 171.681 286.375 164.894 286.375 156.523C286.375 148.151 279.581 141.365 271.2 141.365C262.82 141.365 256.026 148.151 256.026 156.523C256.026 164.894 262.82 171.681 271.2 171.681Z" fill="#A0616A"/>
<path d="M287.381 153.801C287.381 153.801 290.345 140.971 287.381 138.01V139.984C287.381 139.984 285.405 133.075 281.453 135.049C281.453 135.049 276.513 131.101 275.525 133.075C269.712 127.825 243.935 132.747 256.448 160.312C256.448 160.312 258.729 151.827 258.729 154.788C258.729 154.788 264.657 148.866 265.645 146.892C266.633 144.919 283.429 157.749 287.381 153.801Z" fill="#2F2E41"/>
<path d="M585 402.525H0V404H585V402.525Z" fill="#3F3D56"/>
<rect x="527" y="338" width="224" height="53" fill="#C4C4C4"/>
</g>
<defs>
<clipPath id="clip0">
<rect width="585" height="404" fill="white"/>
</clipPath>
</defs>
</svg>
